<svg xmlns="http://www.w3.org/2000/svg" viewBox="0 0 1200 720" role="img" aria-label="ИИ и автоматизация">
  <defs>
    <linearGradient id="g" x1="0" y1="0" x2="1" y2="1">
      <stop offset="0" stop-color="#101015" stop-opacity=".95"/>
      <stop offset=".52" stop-color="#111" stop-opacity="1"/>
      <stop offset="1" stop-color="#121212" stop-opacity=".9"/>
    </linearGradient>
    <radialGradient id="r" cx="62%" cy="38%" r="58%">
      <stop offset="0" stop-color="#c1a5ff" stop-opacity=".62"/>
      <stop offset=".46" stop-color="#c1a5ff" stop-opacity=".14"/>
      <stop offset="1" stop-color="#050505" stop-opacity="0"/>
    </radialGradient>
    <filter id="noise" x="-20%" y="-20%" width="140%" height="140%">
      <feTurbulence type="fractalNoise" baseFrequency="0.85" numOctaves="3" stitchTiles="stitch"/>
      <feColorMatrix type="saturate" values="0"/>
      <feComponentTransfer><feFuncA type="table" tableValues="0 .08"/></feComponentTransfer>
    </filter>
  </defs>
  <rect width="1200" height="720" fill="url(#g)"/>
  <rect width="1200" height="720" fill="url(#r)"/>
  <g opacity=".22" stroke="#fff" stroke-width="1"><path d="M0 0V720"/><path d="M80 0V720"/><path d="M160 0V720"/><path d="M240 0V720"/><path d="M320 0V720"/><path d="M400 0V720"/><path d="M480 0V720"/><path d="M560 0V720"/><path d="M640 0V720"/><path d="M720 0V720"/><path d="M800 0V720"/><path d="M880 0V720"/><path d="M960 0V720"/><path d="M1040 0V720"/><path d="M1120 0V720"/><path d="M1200 0V720"/><path d="M0 0H1200"/><path d="M0 80H1200"/><path d="M0 160H1200"/><path d="M0 240H1200"/><path d="M0 320H1200"/><path d="M0 400H1200"/><path d="M0 480H1200"/><path d="M0 560H1200"/><path d="M0 640H1200"/><path d="M0 720H1200"/></g>

  <g fill="none" stroke="#fff" stroke-opacity=".62">
    <path d="M600 140c120 0 220 96 220 220S720 580 600 580 380 484 380 360 480 140 600 140z" stroke-width="3"/>
    <path d="M490 330c50-70 150-70 200 0M500 420c70 55 150 55 220 0" stroke-width="3"/>
    <path d="M250 360h130M820 360h130M600 60v80M600 580v80" stroke-width="2" opacity=".5"/>
    <circle cx="460" cy="250" r="38"/><circle cx="740" cy="255" r="42"/><circle cx="515" cy="500" r="28"/><circle cx="710" cy="500" r="26"/>
  </g>
  <g fill="#fff" opacity=".72"><circle cx="460" cy="250" r="8"/><circle cx="740" cy="255" r="8"/><circle cx="515" cy="500" r="6"/><circle cx="710" cy="500" r="6"/></g>
  <rect width="1200" height="720" filter="url(#noise)"/>
  <rect x="22" y="22" width="1156" height="676" fill="none" stroke="#fff" stroke-opacity=".24"/>
</svg>