<svg xmlns="http://www.w3.org/2000/svg" viewBox="0 0 1200 720" role="img" aria-label="Трансляции и видео">
  <defs>
    <linearGradient id="g" x1="0" y1="0" x2="1" y2="1">
      <stop offset="0" stop-color="#071015" stop-opacity=".95"/>
      <stop offset=".52" stop-color="#111" stop-opacity="1"/>
      <stop offset="1" stop-color="#111" stop-opacity=".9"/>
    </linearGradient>
    <radialGradient id="r" cx="62%" cy="38%" r="58%">
      <stop offset="0" stop-color="#9ad7ff" stop-opacity=".62"/>
      <stop offset=".46" stop-color="#9ad7ff" stop-opacity=".14"/>
      <stop offset="1" stop-color="#050505" stop-opacity="0"/>
    </radialGradient>
    <filter id="noise" x="-20%" y="-20%" width="140%" height="140%">
      <feTurbulence type="fractalNoise" baseFrequency="0.85" numOctaves="3" stitchTiles="stitch"/>
      <feColorMatrix type="saturate" values="0"/>
      <feComponentTransfer><feFuncA type="table" tableValues="0 .08"/></feComponentTransfer>
    </filter>
  </defs>
  <rect width="1200" height="720" fill="url(#g)"/>
  <rect width="1200" height="720" fill="url(#r)"/>
  <g opacity=".22" stroke="#fff" stroke-width="1"><path d="M0 0V720"/><path d="M80 0V720"/><path d="M160 0V720"/><path d="M240 0V720"/><path d="M320 0V720"/><path d="M400 0V720"/><path d="M480 0V720"/><path d="M560 0V720"/><path d="M640 0V720"/><path d="M720 0V720"/><path d="M800 0V720"/><path d="M880 0V720"/><path d="M960 0V720"/><path d="M1040 0V720"/><path d="M1120 0V720"/><path d="M1200 0V720"/><path d="M0 0H1200"/><path d="M0 80H1200"/><path d="M0 160H1200"/><path d="M0 240H1200"/><path d="M0 320H1200"/><path d="M0 400H1200"/><path d="M0 480H1200"/><path d="M0 560H1200"/><path d="M0 640H1200"/><path d="M0 720H1200"/></g>

  <g fill="none" stroke="#fff" stroke-opacity=".64">
    <rect x="155" y="165" width="370" height="240" stroke-width="3"/>
    <rect x="615" y="125" width="315" height="220" stroke-width="3"/>
    <path d="M210 500h760M310 405v95M750 345v155" stroke-width="2" opacity=".55"/>
    <path d="M205 255h270M660 230h250" stroke-width="18" opacity=".12"/>
    <path d="M210 565c130-40 220-40 350 0s260 40 420 0" stroke-width="4" opacity=".55"/>
  </g>
  <g fill="#fff" opacity=".62"><circle cx="990" cy="565" r="16"/><circle cx="150" cy="565" r="10"/></g>
  <rect width="1200" height="720" filter="url(#noise)"/>
  <rect x="22" y="22" width="1156" height="676" fill="none" stroke="#fff" stroke-opacity=".24"/>
</svg>